<svg width="29" height="18" viewBox="0 0 29 18" fill="none" xmlns="http://www.w3.org/2000/svg">
<path d="M28.0539 4.08745L15.4539 16.725C15.3039 16.875 15.1414 16.981 14.9664 17.043C14.7914 17.106 14.6039 17.1375 14.4039 17.1375C14.2039 17.1375 14.0164 17.106 13.8414 17.043C13.6664 16.981 13.5039 16.875 13.3539 16.725L0.716406 4.08745C0.366406 3.73745 0.191406 3.29995 0.191406 2.77495C0.191406 2.24995 0.378906 1.79995 0.753906 1.42495C1.12891 1.04995 1.56641 0.862452 2.06641 0.862452C2.56641 0.862452 3.00391 1.04995 3.37891 1.42495L14.4039 12.45L25.4289 1.42495C25.7789 1.07495 26.2099 0.899952 26.7219 0.899952C27.2349 0.899952 27.6789 1.08745 28.0539 1.46245C28.4289 1.83745 28.6164 2.27495 28.6164 2.77495C28.6164 3.27495 28.4289 3.71245 28.0539 4.08745Z" fill="#202020"/>
</svg>
