<svg width="29" height="18" viewBox="0 0 29 18" fill="none" xmlns="http://www.w3.org/2000/svg">
<path d="M28.0539 13.8813L15.4539 1.2438C15.3039 1.0938 15.1414 0.987799 14.9664 0.925799C14.7914 0.862799 14.6039 0.831299 14.4039 0.831299C14.2039 0.831299 14.0164 0.862799 13.8414 0.925799C13.6664 0.987799 13.5039 1.0938 13.3539 1.2438L0.716406 13.8813C0.366406 14.2313 0.191406 14.6688 0.191406 15.1938C0.191406 15.7188 0.378906 16.1688 0.753906 16.5438C1.12891 16.9188 1.56641 17.1063 2.06641 17.1063C2.56641 17.1063 3.00391 16.9188 3.37891 16.5438L14.4039 5.5188L25.4289 16.5438C25.7789 16.8938 26.2099 17.0688 26.7219 17.0688C27.2349 17.0688 27.6789 16.8813 28.0539 16.5063C28.4289 16.1313 28.6164 15.6938 28.6164 15.1938C28.6164 14.6938 28.4289 14.2563 28.0539 13.8813Z" fill="#202020"/>
</svg>
